<svg width="3599" height="3343" viewBox="0 0 3599 3343" fill="none" xmlns="http://www.w3.org/2000/svg">
<g filter="url(#filter0_d_11_4)">
<path d="M2475.6 3051.98C2476.5 3050.82 2477.43 3049.66 2478.39 3048.52C2501.18 3021.62 2527.75 2998.15 2549.92 2970.43C2565.68 2950.72 2584.94 2928.11 2580.35 2901.9C2575.63 2874.91 2564.96 2848.06 2556.08 2822.16C2553.08 2813.4 2550.4 2801.78 2558.02 2796.5C2561.82 2793.87 2566.82 2794.08 2571.43 2794.39C2597.12 2796.15 2622.8 2797.91 2648.5 2799.67C2652.39 2799.94 2656.54 2800.31 2659.6 2802.72C2664.38 2806.47 2664.63 2813.47 2664.62 2819.55C2664.55 2857.02 2670.08 2894.62 2680.5 2930.6C2686.36 2950.92 2718.36 3003.51 2694.56 3022.16C2688.06 3027.24 2678.78 3031.04 2672.44 3035.27C2669.67 3037.14 2656.94 3039.02 2634.23 3040.94C2630.4 3041.62 2627.11 3042.64 2624.36 3044C2625.18 3042.58 2617.19 3048.46 2600.38 3061.66C2579.31 3075.5 2564.79 3084.27 2556.82 3087.96C2549.56 3089.96 2542.72 3092.38 2536.28 3095.2L2523.42 3097.22C2513.56 3100.91 2505.95 3102.92 2500.56 3103.24C2477.6 3106.67 2465.06 3106.9 2462.92 3103.95C2453.79 3091.32 2451.91 3093.83 2460.8 3076.27C2465.15 3067.67 2469.79 3059.5 2475.6 3051.98" fill="#F08A6D"/>
<path d="M2475.6 3051.98C2476.5 3050.82 2477.43 3049.66 2478.39 3048.52C2505.96 3015.96 2536.16 2985.71 2560.6 2950.66C2563.28 2946.82 2566.1 2942.68 2570.43 2940.91C2572.92 2939.88 2575.68 2939.75 2578.38 2939.76C2584 2939.79 2610.78 2940.19 2605.16 2952.16C2600.46 2962.2 2594.16 2972.19 2588.75 2982.11C2597.66 2965.76 2622.28 2952.66 2637.32 2943.5C2649.42 2936.11 2658.52 2924.39 2671.1 2917.76C2690.36 2907.63 2693.39 2925.12 2691.32 2941.99C2691.1 2943.86 2690.82 2945.79 2691.39 2947.58C2691.91 2949.22 2693.08 2950.55 2694.11 2951.94C2697.28 2956.24 2699.16 2961.35 2700.99 2966.39C2705.62 2979.12 2717.75 3003.76 2706.06 3015.64C2703.99 3017.75 2701.31 3019.12 2698.68 3020.47C2647.95 3046.35 2597.23 3072.23 2546.5 3098.12C2533.68 3104.66 2520.6 3111.28 2506.4 3113.6C2494.52 3115.54 2466.36 3114.11 2458.22 3102.46C2447.59 3087.27 2466.75 3063.44 2475.6 3051.98" fill="#1B2248"/>
<path d="M2463.59 3088C2485.58 3092.1 2507.28 3085.32 2527.84 3077.91C2548.68 3070.4 2568.44 3060 2586.9 3047.82C2603.84 3036.63 2621.44 3031.12 2640.18 3023.79C2660.8 3015.72 2680.1 3004.67 2696.71 2989.98C2700.24 2986.84 2705.03 2992.39 2701.5 2995.52C2685.38 3009.79 2667.03 3020.35 2647.28 3028.79C2637.11 3033.14 2626.55 3036.4 2616.15 3040.1C2605.63 3043.83 2596.74 3050.2 2587.42 3056.18C2568.42 3068.38 2548.32 3078.28 2527.08 3085.94C2523.71 3087.15 2520.28 3088.32 2516.84 3089.43L2518.32 3100.95C2518.92 3105.62 2511.74 3107.07 2511.14 3102.38C2510.67 3098.78 2510.22 3095.18 2509.75 3091.58C2507.18 3092.3 2504.59 3092.95 2501.99 3093.55C2502.24 3093.92 2502.42 3094.36 2502.46 3094.84C2502.78 3098.44 2502.74 3101.99 2502.14 3105.58C2501.8 3107.54 2500.4 3109.14 2498.26 3109C2496.42 3108.9 2494.5 3107.1 2494.83 3105.12C2495.31 3102.19 2495.52 3099.22 2495.27 3096.26C2495.23 3095.8 2495.26 3095.34 2495.34 3094.91C2484.7 3096.8 2473.91 3097.32 2463.14 3095.32C2458.55 3094.47 2458.95 3087.15 2463.59 3088" fill="#6DC6F0"/>
<path d="M2544.88 2964.7C2561.36 2966.55 2573.03 2975.14 2584.62 2986.39C2588 2989.68 2582.43 2994.46 2579.06 2991.19C2568.95 2981.36 2558.86 2973.63 2544.43 2972.02C2539.74 2971.48 2540.18 2964.16 2544.88 2964.7" fill="#6DC6F0"/>
<path d="M2527.76 2983.98C2543.72 2985.67 2560.99 2990.43 2565.92 3007.64C2567.23 3012.19 2560.03 3013.58 2558.74 3009.07C2554.83 2995.47 2539.46 2992.58 2527.32 2991.3C2522.63 2990.8 2523.07 2983.48 2527.76 2983.98Z" fill="#6DC6F0"/>
<path d="M2507.31 3006.96C2514.39 3004.7 2524.28 3006.06 2531.39 3007.75C2540.23 3009.86 2544.92 3015.82 2549.59 3023.22C2552.1 3027.2 2545.48 3030.38 2542.99 3026.42C2539 3020.11 2535.26 3015.66 2527.44 3014.51C2521.63 3013.64 2514.38 3012.34 2508.74 3014.15C2504.23 3015.59 2502.86 3008.39 2507.31 3006.96Z" fill="#6DC6F0"/>
<path d="M2626.87 2945.98C2629.46 2943.11 2632.28 2940.44 2635.14 2937.99C2642.47 2931.72 2650.8 2926.78 2659.11 2921.88C2667.14 2917.16 2683.82 2908.36 2691.79 2917.14C2698.8 2924.86 2693.99 2938.6 2684.82 2942.04C2681.62 2943.24 2678.12 2943.39 2674.71 2943.58C2664.26 2944.14 2653.79 2945.27 2643.55 2947.55C2638.64 2948.66 2633.08 2949.7 2628.51 2951.87C2625.66 2953.22 2622.96 2956.35 2619.8 2955.38C2621.79 2952.06 2624.2 2948.91 2626.87 2945.98" fill="#6DC6F0"/>
<path d="M2455.22 3089.5C2466.87 3094.34 2480.11 3091.96 2492.5 3089.54C2497.88 3088.47 2511.43 3088.4 2514.68 3083.7C2518.94 3077.54 2512.6 3064.44 2509.86 3058.87C2505.95 3050.95 2500.6 3042.7 2492.11 3040.27C2490.36 3039.76 2488.48 3039.55 2486.75 3040.06C2484.2 3040.82 2482.38 3043 2480.72 3045.07C2470.63 3057.62 2455.76 3072.55 2455.22 3089.5" fill="#6DC6F0"/>
<path d="M3183.83 2856.39C3183.46 2854.96 3183.12 2853.52 3182.82 2852.07C3175.47 2817.58 3173.18 2782.2 3164.83 2747.7C3158.88 2723.16 3152.78 2694.11 3129.24 2681.7C3105 2668.91 3077.24 2660.91 3051.34 2652.08C3042.58 2649.1 3031.74 2644.1 3032.22 2634.86C3032.47 2630.24 3035.7 2626.4 3038.76 2622.96C3055.88 2603.72 3072.99 2584.48 3090.11 2565.24C3092.7 2562.32 3095.54 2559.27 3099.32 2558.31C3105.2 2556.84 3110.9 2560.92 3115.7 2564.66C3145.28 2587.64 3178.4 2606.27 3213.23 2620.07C3232.91 2627.86 3294.07 2634.74 3294.26 2664.96C3294.3 2673.23 3291.62 2682.88 3291.1 2690.48C3290.86 2693.82 3284.56 2705.04 3272.18 2724.18C3270.38 2727.62 3269.18 2730.84 3268.58 2733.86C3267.95 2732.34 3267.7 2742.26 3267.84 2763.63C3265.9 2788.76 3263.95 2805.62 3261.99 2814.18C3259.15 2821.14 3256.86 2828.03 3255.15 2834.84L3248.88 2846.26C3245.78 2856.31 3242.7 2863.56 3239.66 2868.02C3228.31 2888.27 3220.82 2898.34 3217.18 2898.22C3201.6 2897.72 3202.44 2900.74 3193.99 2882.96C3189.84 2874.26 3186.23 2865.58 3183.83 2856.39" fill="#F08A6D"/>
<path d="M3183.83 2856.39C3183.46 2854.96 3183.12 2853.52 3182.82 2852.07C3173.94 2810.34 3168.5 2767.94 3155.72 2727.15C3154.32 2722.67 3152.78 2717.92 3154.03 2713.4C3154.75 2710.82 3156.32 2708.55 3157.99 2706.43C3161.46 2702 3178.15 2681.07 3184.19 2692.83C3189.24 2702.7 3193.28 2713.79 3197.83 2724.14C3190.35 2707.08 3195.06 2679.59 3197 2662.1C3198.58 2648.02 3194.87 2633.63 3197.34 2619.64C3201.11 2598.19 3216.8 2606.51 3228.87 2618.47C3230.2 2619.79 3231.56 2621.19 3233.34 2621.83C3234.95 2622.42 3236.72 2622.31 3238.44 2622.35C3243.79 2622.47 3248.98 2624.12 3254.08 2625.75C3266.99 2629.88 3293.9 2635.38 3296.14 2651.88C3296.54 2654.8 3295.99 2657.78 3295.44 2660.67C3284.86 2716.63 3274.28 2772.59 3263.71 2828.55C3261.04 2842.7 3258.28 2857.08 3251.42 2869.74C3245.67 2880.32 3227.31 2901.72 3213.12 2901.03C3194.6 2900.14 3187.48 2870.4 3183.83 2856.39" fill="#1B2248"/>
<path d="M3204.98 2887.94C3221.66 2873.04 3229.6 2851.74 3236.32 2830.94C3243.14 2809.87 3246.99 2787.87 3248.66 2765.82C3250.18 2745.58 3256.59 2728.28 3262.27 2708.98C3268.51 2687.72 3271.58 2665.71 3270.11 2643.58C3269.8 2638.87 3277.12 2638.47 3277.43 2643.19C3278.86 2664.67 3275.98 2685.64 3270.56 2706.42C3267.78 2717.12 3263.9 2727.47 3260.44 2737.96C3256.96 2748.58 3256.56 2759.5 3255.59 2770.52C3253.6 2793.03 3249.15 2814.96 3242.2 2836.46C3241.1 2839.87 3239.94 2843.3 3238.7 2846.7L3248.71 2852.56C3252.76 2854.95 3249.51 2861.52 3245.43 2859.12C3242.31 2857.28 3239.18 2855.46 3236.06 2853.62C3235.06 2856.1 3233.98 2858.54 3232.86 2860.95C3233.31 2860.99 3233.76 2861.12 3234.16 2861.38C3237.22 2863.34 3239.99 2865.52 3242.46 2868.19C3243.82 2869.66 3244.22 2871.75 3242.8 2873.36C3241.59 2874.75 3238.99 2875.18 3237.63 2873.71C3235.62 2871.52 3233.39 2869.54 3230.9 2867.94C3230.5 2867.68 3230.15 2867.38 3229.86 2867.04C3224.86 2876.62 3218.66 2885.47 3210.48 2892.76C3207 2895.87 3201.46 2891.07 3204.98 2887.94" fill="#6DC6F0"/>
<path d="M3157.2 2748.18C3168.76 2736.27 3182.68 2732.31 3198.68 2730.03C3203.36 2729.38 3203.72 2736.7 3199.07 2737.35C3185.11 2739.34 3172.83 2742.59 3162.72 2753.02C3159.43 2756.4 3153.91 2751.58 3157.2 2748.18Z" fill="#6DC6F0"/>
<path d="M3161.99 2773.51C3173.08 2761.94 3187.42 2751.19 3204.06 2757.82C3208.44 2759.56 3205.14 2766.11 3200.78 2764.38C3187.63 2759.14 3175.94 2769.54 3167.5 2778.35C3164.23 2781.75 3158.71 2776.92 3161.99 2773.51Z" fill="#6DC6F0"/>
<path d="M3167.64 2803.75C3170.18 2796.76 3177.31 2789.78 3183 2785.19C3190.08 2779.5 3197.66 2779.43 3206.36 2780.27C3211.06 2780.72 3209.52 2787.9 3204.86 2787.44C3197.43 2786.74 3191.63 2786.98 3185.92 2792.46C3181.7 2796.52 3176.22 2801.46 3174.19 2807.03C3172.58 2811.47 3166.04 2808.15 3167.64 2803.75" fill="#6DC6F0"/>
<path d="M3192.58 2671.88C3191.9 2668.07 3191.51 2664.22 3191.32 2660.46C3190.86 2650.83 3192.04 2641.2 3193.26 2631.63C3194.43 2622.4 3197.67 2603.83 3209.5 2602.88C3219.9 2602.06 3227.83 2614.3 3224.94 2623.64C3223.92 2626.91 3221.9 2629.76 3219.95 2632.58C3214 2641.19 3208.5 2650.16 3204.04 2659.64C3201.9 2664.22 3199.32 2669.24 3198.23 2674.19C3197.56 2677.27 3198.39 2681.31 3195.68 2683.22C3194.27 2679.62 3193.27 2675.78 3192.58 2671.88Z" fill="#6DC6F0"/>
<path d="M3201.03 2895.47C3211.99 2889.2 3218.22 2877.3 3223.87 2866.02C3226.34 2861.1 3234.56 2850.34 3232.83 2844.9C3230.56 2837.75 3216.34 2834.75 3210.26 2833.51C3201.59 2831.75 3191.8 2830.94 3184.67 2836.16C3183.22 2837.24 3181.88 2838.59 3181.23 2840.27C3180.27 2842.75 3180.88 2845.52 3181.5 2848.11C3185.26 2863.76 3187.96 2884.66 3201.03 2895.47" fill="#6DC6F0"/>
<path d="M2662.76 1382.74C2682.56 1397.04 2701.43 1413.8 2712.62 1435.54C2727.63 1464.68 2727.15 1499.06 2726.32 1531.83C2725.51 1563.52 2724.71 1595.23 2723.91 1626.92C2723.82 1630.66 2723.67 1634.55 2721.87 1637.82C2718.19 1644.44 2709.46 1645.86 2701.92 1646.55C2621.43 1654.07 2541.3 1665.35 2461.86 1680.35C2459.32 1620.43 2456.79 1560.5 2454.26 1500.58C2452.28 1454.11 2452.51 1401.72 2485.51 1368.95C2508.43 1346.2 2543.38 1338.48 2575.32 1343.23C2607.27 1347.96 2636.59 1363.82 2662.76 1382.74" fill="#F08A6D"/>
<path d="M2560.14 1572.18C2583.14 1575.7 2606.79 1574.78 2629.44 1569.47C2636.87 1567.74 2644.19 1565.54 2651.5 1563.34C2712.46 1544.98 2733.64 1530.47 2767.3 1591.18C2790.87 1633.7 2808.96 1686.27 2800.24 1735.42C2795.83 1760.22 2784.19 1783.07 2776.63 1807.08C2755.95 1872.7 2766.38 1943.55 2776.98 2011.52C2788.28 2084.06 2786.86 2193.96 2823.76 2256.7C2852.52 2305.58 2902.91 2338.14 2945.56 2374.98C2976.34 2401.58 3006.08 2429.34 3035.16 2457.76C3057.28 2479.39 3087.16 2502.3 3103.26 2528.96C3105.91 2520.8 3108.58 2512.64 3111.23 2504.48C3126.12 2522.54 3141.95 2538.56 3158.42 2555.5C3160.4 2557.54 3162.46 2559.68 3163.39 2562.36C3164.63 2565.9 3163.78 2569.76 3162.82 2573.38C3149.22 2624.16 3133.74 2678.74 3099.38 2719.92C3098.86 2720.55 3098.26 2721.2 3097.46 2721.35C3096.54 2721.51 3095.67 2720.91 3094.91 2720.35C3074.79 2705.27 3058.14 2685.91 3038.35 2671.07C3014.4 2648.86 2987.22 2630.66 2961.15 2611.1C2935.99 2592.23 2914.51 2567.96 2887.71 2551.82C2860.04 2535.14 2838.54 2510.15 2814.91 2488.15C2791.52 2466.38 2764.88 2449.92 2742.31 2427.72C2697.27 2383.44 2622.28 2336.18 2612.51 2267.39C2600.75 2184.7 2586.78 2102.82 2580 2018.83C2573.62 1940.23 2569.04 1861.48 2566.27 1782.68C2563.88 1714.96 2576.52 1637.98 2560.14 1572.18" fill="#6DC6F0"/>
<path d="M2747.03 2070.3C2762.91 2047.8 2778.8 2025.3 2794.7 2002.8C2795.62 2001.5 2796.68 2000.55 2797.83 1999.9L2800.07 1996.79H2800.08C2801.94 1991.5 2804.22 1986.22 2806.75 1980.96C2804.23 1982.68 2801.79 1984.47 2799.43 1986.18C2789.67 1993.23 2779.82 1999.2 2767.94 2001.86C2755.84 2004.55 2752.14 1985.78 2764.14 1983.02C2764.58 1981.86 2765.24 1980.72 2766.2 1979.66C2785.44 1958.34 2805.22 1940.48 2833.48 1935.18C2834.75 1933.14 2836 1931.14 2837.22 1929.15C2832.55 1919 2833.7 1902.12 2834.5 1876.68C2836.16 1823.68 2837.76 1770.68 2839.4 1717.68C2840.31 1688.24 2841.23 1658.66 2846.55 1629.68C2849.87 1611.64 2855.16 1593.36 2866.67 1579.07C2878.18 1564.78 2897.1 1555.26 2915 1559.27C2924.7 1561.44 2933.14 1567.22 2941.3 1572.86C2948.1 1577.56 2955.23 1582.64 2958.52 1590.23C2965.98 1607.36 2966.8 1633.56 2965.04 1660.19C2963.16 1688.72 2958.32 1717.76 2955.52 1736.64C2947.92 1787.8 2934.78 1838.64 2928.3 1889.83C2925.96 1908.24 2926.44 1921.02 2922.91 1929.04C2922.72 1932.04 2922.28 1935.08 2921.59 1938.18C2918.6 1951.46 2911.8 1965.24 2908.9 1976.82C2901.32 2006.91 2892.78 2036.78 2883.28 2066.32C2881.34 2067.15 2879.35 2067.76 2877.32 2068.24C2875.44 2074.11 2873.16 2079.87 2870.43 2085.5C2870.34 2085.7 2870.23 2085.88 2870.12 2086.07C2861.83 2105.82 2852.42 2125.07 2841.88 2143.79C2838.64 2149.54 2832.64 2149.15 2828.63 2145.94C2828.1 2146.18 2827.58 2146.43 2827 2146.6C2827.08 2145.96 2827.18 2145.31 2827.26 2144.66C2824.64 2141.72 2823.47 2137.42 2825.91 2133.1C2829.8 2126.19 2833.51 2119.2 2837.06 2112.15C2842.98 2097.24 2849.68 2082.07 2852.18 2067.7C2849.82 2067.19 2847.5 2066.58 2845.19 2065.94C2835.72 2090.72 2824.78 2114.91 2812.5 2138.48C2810.84 2141.99 2809.16 2145.5 2807.44 2148.99C2801.96 2160.07 2786.07 2149.24 2791.47 2138.3C2791.6 2138.04 2791.71 2137.79 2791.83 2137.55C2792.03 2136.7 2792.31 2135.83 2792.78 2134.96C2794.02 2132.66 2795.2 2130.34 2796.4 2128.02C2806.94 2105.43 2815.78 2082.12 2823.15 2058.31C2821.2 2057.52 2819.26 2056.7 2817.32 2055.84C2812.74 2068.36 2807.7 2080.7 2802.18 2092.83C2799.86 2097.94 2797.3 2103.15 2794.04 2107.72C2790.91 2114.83 2787.78 2121.94 2784.64 2129.04C2779.67 2140.3 2761.4 2134.3 2766.39 2122.98C2771.42 2111.59 2776.44 2100.2 2781.46 2088.83C2781.67 2087.95 2781.9 2087.07 2782.12 2086.22C2785.98 2071.58 2791.34 2057.34 2798.07 2043.76C2797.08 2041.04 2796.35 2038.3 2795.82 2035.52L2763 2080.99C2755.76 2091 2739.86 2080.44 2747.03 2070.3" fill="#F08A6D"/>
<path d="M2082.92 247.23C2083.78 246.856 2084.7 246.75 2085.66 247.003C2086.8 247.31 2087.76 248.11 2088.64 248.923C2100.11 259.443 2103.07 272.416 2107.71 286.51C2113.99 305.55 2119.11 324.963 2123.06 344.616C2125.76 344.869 2127.02 341.35 2127.3 338.643C2129.2 320.536 2129.14 302.216 2127.11 284.11C2125.75 271.923 2122.32 257.709 2124.84 245.483C2126.46 237.696 2134.9 232.59 2140.06 242.39C2156.26 273.163 2153.48 307.363 2156.47 340.763C2162.78 335.763 2166 327.43 2172.55 321.963C2180.04 315.723 2192.34 301.336 2203.52 305.683C2206.7 306.923 2209.31 309.23 2211.84 311.51C2219.12 318.043 2226.32 324.67 2233.44 331.376C2235.12 332.95 2236.82 334.549 2238.07 336.483C2245.58 348.069 2241.1 363.776 2249.67 375.59C2250 376.07 2250.39 376.59 2250.36 377.176C2250.32 377.87 2249.75 378.416 2249.19 378.83C2244.88 381.963 2238.54 381.936 2234.27 378.749C2232.76 377.616 2231.54 376.176 2230.38 374.71C2224.7 367.456 2224.79 358.336 2219.39 351.043C2214.15 343.936 2205.79 340.75 2197.83 337.643C2193.35 347.096 2188.87 356.536 2184.39 365.99C2183.08 368.75 2181.78 371.536 2181.19 374.536C2180.64 377.363 2180.79 380.269 2180.83 383.149C2181.06 396.923 2172.3 417.696 2177.74 429.949C2186.31 425.656 2195.6 421.63 2203.3 415.803C2211.99 409.216 2216.4 398.47 2225.76 392.203C2229.28 389.856 2233.3 387.776 2237.52 388.083C2241.74 388.376 2245.96 391.923 2245.56 396.136C2235.63 407.763 2228.26 421.59 2224.14 436.323C2222.2 443.23 2220.92 450.443 2217.4 456.696C2205.75 477.363 2177.24 486.123 2186.31 513.763C2191.23 528.79 2198.43 542.95 2205.6 557.043C2221.04 587.363 2235.62 618.203 2251.96 648.136C2267.8 677.136 2285.6 711.109 2309.18 734.683C2326.75 756.349 2349.91 772.776 2347.5 802.869C2345.8 824.109 2319.36 871.83 2297.46 877.243C2253.62 888.043 2212.07 799.136 2193.72 771.469C2179.7 750.323 2167.56 727.976 2156.63 705.083C2146.42 683.696 2135.06 661.816 2126.31 640.056C2108.78 596.47 2094.94 549.256 2087.6 502.803C2084.24 481.51 2077.26 460.936 2073.34 439.563C2069.7 419.723 2067.28 399.39 2067.04 379.19C2066.94 371.19 2068.91 364.563 2066.82 356.736C2061.02 335.056 2043.74 318.99 2044 296.003C2044.04 292.67 2044.96 288.536 2048.2 287.763C2051.23 287.043 2053.83 289.856 2055.64 292.39C2066.91 308.91 2078.6 326.11 2086.47 344.43C2087 345.643 2087.56 346.923 2088.63 347.71C2089.7 348.483 2091.42 348.55 2092.19 347.47C2092.59 346.896 2092.64 346.15 2092.67 345.456C2093.14 333.936 2092.44 323.63 2089.67 312.336C2086.51 299.55 2082.15 287.096 2079.03 274.31C2077.28 267.123 2075.96 259.416 2078.51 252.483C2079.3 250.31 2080.92 248.07 2082.92 247.23" fill="#F08A6D"/>
<path d="M2452.74 1524.79C2453.26 1518.55 2453.79 1512.3 2454.39 1506.03C2454.39 1529.84 2626.22 1533.88 2642.24 1534.88C2674.26 1536.87 2706.94 1538.79 2737.88 1530.35C2718.5 1641.23 2666.8 1740.14 2645 1849.28C2621.59 1966.48 2605.03 2085.82 2609.36 2205.6C2610.94 2248.87 2615.22 2291.99 2619.8 2335.04C2628.58 2417.39 2643.79 2498.8 2650.35 2581.42C2654.02 2627.75 2658.15 2674.04 2662.56 2720.32C2663.72 2732.51 2680.92 2846.14 2673.72 2848.79C2628.06 2865.64 2582.18 2879.74 2533.67 2883.43C2525.4 2857.5 2516.4 2831.79 2506.7 2806.35C2515.39 2806.91 2524.14 2806.47 2532.74 2805.03C2525.62 2787.75 2523.28 2770.2 2519.62 2751.87C2503.86 2683.31 2484.95 2615.52 2465.95 2547.8C2435.16 2438.11 2404.76 2325.74 2391.06 2212.48C2377.52 2100.63 2383.75 1986.06 2394.32 1875.18C2402.3 1791.44 2410.07 1702.03 2436.62 1622.51C2447.26 1590.67 2449.92 1558.06 2452.74 1524.79" fill="#6DC6F0"/>
<path d="M2525.75 965.096C2557.83 991.363 2592.19 1006.48 2641.56 1017.56C2641.58 1017.58 2823.95 1058.51 2823.95 1058.51C2876.91 1084.84 2902.95 1111.8 2902.06 1139.38C2899.8 1209.16 2853.95 1278.76 2834.87 1347.79C2810.98 1434.18 2796.44 1523.16 2791.72 1612.68C2792.02 1607.07 2585.56 1520.71 2565.23 1510.46C2518.66 1486.96 2477.47 1454.59 2437.08 1421.92C2418.35 1406.76 2391.19 1391.11 2376.22 1372.39C2354.86 1345.71 2366.8 1344.36 2378.1 1311.2C2385.95 1288.12 2454.27 1111.2 2453.35 1110.44C2426.35 1088.44 2196.78 834.616 2197.87 833.243C2237.74 783.523 2285.94 740.51 2339.87 706.55C2377.78 783.563 2425.51 855.723 2481.44 920.83C2496.58 938.443 2510.92 952.963 2525.75 965.096" fill="#FAB913"/>
<path d="M2825.16 1632.28C2825.38 1640 2825.6 1647.74 2825.88 1655.48C2895.64 1671.42 2971.63 1633.94 3022.06 1587.19C3024.86 1584.59 3027.76 1581.64 3028.26 1577.86C3028.62 1575.23 3027.74 1572.62 3026.88 1570.11C3004.02 1503.28 2985.82 1434.98 2967.64 1366.72C2962.08 1345.86 2956.52 1324.98 2950.96 1304.11C2940.86 1266.15 2930.74 1228.16 2923.2 1189.63C2919.35 1169.94 2916.08 1149.83 2907.35 1131.76C2898.62 1113.71 2883.32 1097.62 2863.71 1093.4C2839.6 1088.22 2814.64 1102.38 2799.83 1122.08C2774.67 1155.58 2769.83 1201.18 2768.22 1241.74C2767.35 1263.54 2768.83 1285.43 2772.06 1306.99C2776.9 1339.39 2794.64 1367.32 2800.87 1399.83C2807.82 1436.1 2812.54 1472.72 2817.58 1509.28C2823.22 1550.15 2823.99 1591.11 2825.16 1632.28" fill="#FAB913"/>
<path d="M2540.22 804.643C2538.54 770.616 2545.62 736.163 2558.52 700.83C2561.16 693.603 2564.19 686.376 2568.99 680.376C2574.24 673.816 2581.34 669.016 2588.36 664.43C2604.82 653.71 2622.44 643.23 2642.03 641.763C2711.26 636.536 2750.38 712.536 2756.88 770.19C2756.88 841.19 2759.44 910.443 2755.23 981.39C2754.31 996.79 2751.2 1021.56 2758.19 1035.84C2759.66 1038.86 2778.86 1057.19 2782.14 1053.86C2761.87 1074.47 2742.18 1096.11 2717.88 1111.78C2668.04 1143.92 2587.64 1133.1 2550.18 1084.83C2525.58 1053.14 2520.64 1008.16 2534.98 970.696C2550.12 980.616 2584.91 1014.48 2604.19 998.23C2633.14 973.816 2626.94 924.883 2632.95 890.643C2625.54 897.256 2614.96 898.736 2605.04 899.51C2554.66 903.483 2542.07 841.936 2540.22 804.643" fill="#F08A6D"/>
<path d="M2641.32 530.856C2649.8 528.67 2659.99 530.536 2666.87 536.27C2678.95 546.31 2682.87 563.03 2684.55 578.643C2714.4 586.363 2752.08 546.016 2774.23 586.376C2785.34 606.616 2779.38 636.843 2798.79 649.323C2812.75 658.31 2835.51 654.03 2843.07 668.803C2847.79 678.043 2843 689.083 2838.27 698.296C2855.95 691.443 2876.03 684.616 2893.26 692.563C2912.07 701.23 2919.59 724.163 2920.82 744.843C2921.34 753.683 2921.03 762.816 2917.63 770.99C2907.28 795.83 2875.47 801.043 2850 809.763C2847.74 810.536 2845.14 811.776 2844.76 814.15C2844.54 815.576 2845.24 816.99 2845.98 818.243C2854.42 832.723 2869.94 844.99 2869.24 861.75C2868.6 876.776 2854 888.15 2839.18 890.67C2824.34 893.203 2809.28 889.136 2794.63 885.683C2779.99 882.243 2764.36 879.416 2750.12 884.256C2740.19 887.643 2731.68 894.55 2721.59 897.456C2711.51 900.376 2698.08 897.15 2695.38 887.003C2693.58 880.336 2697.1 873.523 2700.5 867.51C2714.4 842.923 2730.83 819.096 2739.12 791.816C2745.83 769.803 2750.36 739.443 2741.27 717.256C2733.74 698.883 2712.48 684.15 2698.02 671.27C2660.08 637.523 2599.72 641.23 2573.74 687.083C2567.76 697.63 2563.88 709.91 2554.6 717.683C2547.31 681.856 2548.04 595.923 2598.28 589.03C2606.19 587.923 2615.2 589.683 2621.42 584.67C2632.78 575.51 2622.28 556.536 2627.23 542.816C2629.51 536.456 2634.94 532.496 2641.32 530.856" fill="#F44336"/>
<path d="M2630.4 626.256C2649.47 636.536 2666.58 651.856 2681.18 666.43C2701.36 686.563 2716.06 711.016 2722.23 738.55C2725.66 753.79 2741.02 816.523 2728.06 828.736C2746.83 811.043 2753.58 783.71 2753.34 757.91C2752.74 693.016 2715.27 624.616 2656.02 596.096C2651.11 593.736 2645.86 591.443 2642.56 587.096C2634.79 576.856 2636.9 557.803 2634.16 545.63C2630.15 527.817 2625.23 510.137 2620.26 492.563C2619.92 491.39 2619.52 490.123 2618.51 489.443C2617.62 488.816 2616.44 488.83 2615.35 488.87C2603.31 489.31 2591.35 491.723 2580.07 495.963C2570.22 499.683 2560.94 504.75 2551.7 509.816C2563.68 536.096 2579.43 559.31 2595.58 583.07C2578.91 579.696 2561.3 568.576 2542.68 565.523C2536.51 564.51 2529.12 564.323 2525.2 569.19C2511.15 586.616 2525.56 612.643 2526.64 630.83C2534.1 626.056 2542.32 622.523 2550.86 620.203C2561.18 617.39 2571.9 616.39 2582.56 615.403C2588.6 614.843 2594.74 614.283 2600.71 615.39C2611.04 617.296 2620.96 621.163 2630.4 626.256" fill="#1B2248"/>
<path d="M2664.99 810.91C2657.59 813.696 2648.59 815.683 2642.31 810.883C2634.72 805.096 2636.31 792.336 2643.18 785.723C2650.04 779.11 2660.11 777.203 2669.6 776.283C2675.08 775.763 2680.8 775.496 2685.9 777.616C2690.98 779.736 2695.19 784.896 2694.5 790.35C2693.76 796.03 2688.38 799.803 2683.34 802.523C2677.43 805.736 2671.3 808.536 2664.99 810.91Z" fill="#EF4325"/>
<path d="M2575.16 788.416C2572.83 790.536 2569.59 791.643 2566.44 791.363C2562.02 790.99 2558.19 788.07 2555.28 784.71C2547.22 775.35 2544.72 761.51 2549.03 749.91C2549.8 747.816 2550.96 745.616 2553.04 744.776C2557.14 743.123 2560.86 747.576 2563.48 751.123C2567.79 756.95 2573.34 761.896 2576.7 768.31C2580.04 774.723 2580.51 783.536 2575.16 788.416" fill="#EF4325"/>
<path d="M2640.82 745.696C2642.23 740.843 2644.5 736.19 2647.16 731.91C2649.16 728.696 2653.83 729.403 2655.48 732.496C2656.79 734.923 2657.24 737.616 2657.03 740.256C2657.18 741.536 2656.92 742.883 2656.28 744.123C2655.23 746.15 2654.9 748.443 2653.8 750.496C2652.78 752.43 2650.46 753.456 2648.46 753.99C2646.56 754.483 2644.56 753.883 2642.95 752.91C2640.39 751.363 2640.06 748.283 2640.82 745.696" fill="#1B2248"/>
<path d="M2574.66 717.576C2574.7 717.323 2574.78 717.056 2574.86 716.776C2575.18 714.75 2575.96 712.803 2577.18 711.136C2577.87 708.936 2578.96 706.856 2580.55 704.99C2583.14 701.99 2588.39 702.243 2589.26 706.736C2589.64 708.763 2589.76 710.75 2589.64 712.683C2590.67 717.47 2589.02 722.603 2585.1 725.83C2584.76 726.11 2584.39 726.31 2583.98 726.483C2583.75 726.763 2583.55 727.043 2583.32 727.31C2581.18 729.736 2577.14 728.216 2575.86 725.776C2574.5 723.19 2574.1 720.443 2574.66 717.576" fill="#1B2248"/>
<path d="M2661.07 703.35C2673.72 705.016 2684.4 712.337 2690.39 723.643C2692.8 728.203 2687.23 731.856 2683.62 729.803C2681.88 730.75 2679.71 730.657 2678.15 728.577C2674.2 723.31 2668.71 719.843 2662.11 719.07C2658.28 718.616 2657.07 714.723 2658.18 712.016C2654.67 709.456 2655.84 702.656 2661.07 703.35" fill="#1B2248"/>
<path d="M2582.91 681.776C2583.92 681.683 2584.94 681.656 2585.95 681.643C2587.15 680.856 2588.7 680.643 2590.22 680.99C2592.28 681.47 2594.28 682.15 2596.24 682.91C2601.24 684.23 2605.94 686.603 2610.03 690.163C2614.66 694.163 2609.36 702.19 2604.68 698.15C2604.1 697.63 2603.5 697.163 2602.88 696.696C2602.1 696.656 2601.3 696.43 2600.48 695.87C2597.95 694.15 2595.28 692.83 2592.5 691.763C2590.02 691.19 2587.44 690.976 2584.78 691.203C2578.66 691.723 2576.72 682.296 2582.91 681.776Z" fill="#1B2248"/>
<path d="M2571.99 841.443C2592.87 847.23 2614.88 842.15 2631 828.603C2614.28 832.696 2596.92 830.483 2581.08 822.136C2579.68 821.403 2579.22 819.416 2579.67 818.003C2582.56 809.083 2595.88 782.857 2589 774.51C2584.8 769.403 2579.38 766.683 2578.74 759.536C2578.6 758.003 2579.1 756.243 2580.71 755.603C2601.19 747.39 2615.47 729.643 2618.51 707.697C2619.15 703.11 2626.35 703.536 2625.71 708.136C2622.46 731.59 2608 751.243 2586.52 760.91C2589.32 767.43 2599.1 770.55 2598.74 778.577C2598.18 791.403 2591.83 804.976 2587.51 817.336C2605.12 825.723 2624.75 825.47 2642.4 816.87C2645.51 815.363 2649.19 819.19 2646.98 822.123C2628.91 845.963 2598.55 856.27 2569.72 848.283C2565.23 847.043 2567.54 840.217 2571.99 841.443" fill="#A44946"/>
<path d="M2469.9 1584.92C2540.3 1605.42 2614.83 1605.72 2685.44 1586.03C2689.92 1584.79 2691.3 1591.86 2686.84 1593.11C2615.07 1613.12 2539.15 1612.58 2467.62 1591.76C2463.15 1590.46 2465.44 1583.63 2469.9 1584.92Z" fill="#3C46DE"/>
<path d="M2681.88 1622.54C2687.56 1639.16 2693.23 1655.78 2698.91 1672.4C2700.39 1676.74 2693.92 1679.95 2692.43 1675.55C2686.75 1658.92 2681.07 1642.31 2675.4 1625.68C2673.92 1621.35 2680.38 1618.14 2681.88 1622.54Z" fill="#3C46DE"/>
<path d="M2665.96 1639.51C2667.2 1650.75 2669.7 1661.67 2673.63 1672.28C2675.23 1676.59 2668.76 1679.79 2667.15 1675.43C2663 1664.23 2660.2 1652.78 2658.9 1640.91C2658.39 1636.32 2665.44 1634.88 2665.96 1639.51" fill="#3C46DE"/>
<path d="M2478.5 1658.51C2482.62 1648.3 2486.74 1638.1 2490.86 1627.9C2492.6 1623.6 2499.44 1625.86 2497.71 1630.16C2493.58 1640.38 2489.46 1650.58 2485.34 1660.78C2483.59 1665.07 2476.75 1662.82 2478.5 1658.51" fill="#3C46DE"/>
<path d="M2457.2 1659.92C2461.95 1646.55 2466.7 1633.18 2471.44 1619.82C2473 1615.43 2479.84 1617.71 2478.3 1622.08C2473.54 1635.46 2468.79 1648.83 2464.04 1662.19C2462.5 1666.58 2455.66 1664.3 2457.2 1659.92Z" fill="#3C46DE"/>
<path d="M2529.7 1714.4C2540.83 1905.91 2572.79 2095.91 2624.74 2280.56C2626 2285.04 2618.92 2286.42 2617.67 2281.96C2565.55 2096.68 2533.68 1906.11 2522.51 1713.96C2522.23 1709.31 2529.43 1709.82 2529.7 1714.4" fill="#3C46DE"/>
<path d="M2651.44 2335.55C2790.86 2470.9 2939.26 2596.8 3095.5 2712.34C3099.22 2715.1 3095.23 2721.1 3091.48 2718.32C2934.74 2602.42 2785.86 2476.06 2645.98 2340.26C2642.64 2337.03 2648.12 2332.34 2651.44 2335.55Z" fill="#3C46DE"/>
<path d="M3063.98 2659.18C3087.26 2623.48 3100.1 2582.78 3101.56 2540.2C3101.74 2535.54 3108.92 2536 3108.76 2540.63C3107.24 2584.43 3093.9 2626.5 3069.96 2663.19C3067.42 2667.08 3061.43 2663.07 3063.98 2659.18" fill="#3C46DE"/>
<path d="M2539.3 2802.35C2576.51 2803.83 2612.44 2794.34 2644.16 2774.86C2648.12 2772.43 2651.24 2778.94 2647.31 2781.35C2614.59 2801.43 2577.2 2811.07 2538.86 2809.55C2534.2 2809.36 2534.66 2802.16 2539.3 2802.35Z" fill="#3C46DE"/>
<path d="M2516.1 2805.64C2520.75 2805.88 2520.3 2813.07 2515.66 2812.83C2518.26 2812.96 2523.95 2838.27 2524.9 2841.39C2528.56 2853.52 2532.23 2865.64 2535.9 2877.76C2537.24 2882.22 2530.16 2883.58 2528.83 2879.16C2523.32 2860.98 2517.82 2842.79 2512.32 2824.62C2510.74 2819.38 2505.43 2805.08 2516.1 2805.64" fill="#3C46DE"/>
<path d="M3120.04 2512.46C3132.5 2527.2 3145.76 2541.16 3159.86 2554.36C3163.23 2557.54 3157.75 2562.22 3154.39 2559.07C3140.31 2545.87 3127.04 2531.91 3114.59 2517.16C3111.59 2513.62 3117.04 2508.9 3120.04 2512.46Z" fill="#3C46DE"/>
<path d="M2832.12 1137.83C2835.15 1152.43 2838.16 1167.02 2841.19 1181.62C2843.74 1193.98 2824.56 1197.75 2822.02 1185.42C2818.99 1170.82 2815.98 1156.22 2812.95 1141.63C2810.39 1129.27 2829.56 1125.48 2832.12 1137.83Z" fill="#3C46DE"/>
<path d="M2688.95 1219.43C2701.47 1216.32 2713.99 1213.22 2726.52 1210.11C2738.78 1207.07 2742.51 1226.26 2730.31 1229.28C2717.79 1232.39 2705.27 1235.5 2692.74 1238.6C2680.48 1241.63 2676.75 1222.44 2688.95 1219.43Z" fill="#3C46DE"/>
<path d="M2726.86 1350.94C2736.92 1339.14 2747.72 1328.11 2759.54 1318.06C2769.11 1309.9 2781.91 1324.67 2772.3 1332.86C2761.84 1341.75 2752 1351.35 2743.1 1361.8C2739.64 1365.86 2734.35 1367.71 2729.54 1364.5C2725.5 1361.79 2723.39 1354.99 2726.86 1350.94Z" fill="#3C46DE"/>
<path d="M2666.92 1438.47C2675.4 1452.1 2683.07 1466.16 2689.96 1480.67C2695.36 1492.03 2677.8 1500.62 2672.39 1489.2C2665.5 1474.7 2657.82 1460.63 2649.34 1447C2642.7 1436.31 2660.32 1427.84 2666.92 1438.47Z" fill="#3C46DE"/>
<path d="M2565.43 1266.03C2569.83 1262.23 2575.27 1263.47 2579.22 1267.04C2590.31 1277.11 2601.39 1287.16 2612.48 1297.23C2616.43 1300.82 2615.12 1307.86 2611.47 1311.02C2607.07 1314.82 2601.62 1313.58 2597.68 1310C2586.59 1299.94 2575.5 1289.87 2564.42 1279.82C2560.47 1276.23 2561.78 1269.19 2565.43 1266.03Z" fill="#3C46DE"/>
<path d="M2548.22 1147.2C2560.71 1148.27 2573.2 1149.32 2585.68 1150.39C2598.26 1151.47 2597.06 1170.98 2584.5 1169.9C2572 1168.84 2559.52 1167.78 2547.03 1166.71C2534.47 1165.64 2535.67 1146.14 2548.22 1147.2Z" fill="#3C46DE"/>
<path d="M2469.3 1326.38C2469.51 1313.72 2489.02 1315.02 2488.82 1327.56C2488.58 1342.08 2489.84 1356.31 2492.58 1370.56C2494.94 1382.95 2475.76 1386.75 2473.4 1374.36C2470.38 1358.51 2469.03 1342.5 2469.3 1326.38" fill="#3C46DE"/>
<path d="M2462.48 1204.6C2466.42 1217.91 2471.78 1230.6 2478.27 1242.86C2484.18 1253.99 2466.59 1262.52 2460.68 1251.39C2453.4 1237.64 2447.72 1223.31 2443.31 1208.4C2439.74 1196.31 2458.94 1192.62 2462.48 1204.6Z" fill="#3C46DE"/>
<path d="M2444.11 989.55C2456.04 984.63 2467.98 979.723 2479.91 974.816C2491.5 970.056 2500.14 987.59 2488.44 992.403C2476.51 997.31 2464.58 1002.22 2452.64 1007.12C2441.06 1011.9 2432.42 994.35 2444.11 989.55" fill="#3C46DE"/>
<path d="M2343.42 868.603C2346 853.523 2347.35 838.39 2347.46 823.097C2347.54 810.457 2367.06 811.75 2366.96 824.297C2366.86 839.59 2365.51 854.723 2362.92 869.79C2360.8 882.097 2341.28 881.003 2343.42 868.603Z" fill="#3C46DE"/>
<path d="M2327.72 924.203C2328.07 918.403 2332.78 915.377 2338.07 915.057C2350.08 914.31 2362.02 914.67 2373.95 916.136C2386.43 917.67 2385.27 937.19 2372.76 935.643C2360.82 934.177 2348.9 933.817 2336.88 934.563C2331.55 934.897 2327.43 929.03 2327.72 924.203Z" fill="#3C46DE"/>
<path d="M2842.07 1298.55C2848.79 1285.72 2854.6 1272.5 2859.71 1258.94C2864.14 1247.16 2882.7 1253.31 2878.26 1265.11C2872.54 1280.31 2865.83 1295.04 2858.3 1309.43C2852.46 1320.59 2836.28 1309.6 2842.07 1298.55" fill="#3C46DE"/>
<path d="M2901.7 1414.75C2913.75 1423.27 2925.82 1431.79 2937.87 1440.31C2948.15 1447.58 2937.31 1463.83 2927 1456.55C2914.94 1448.03 2902.88 1439.51 2890.82 1430.99C2880.54 1423.72 2891.39 1407.47 2901.7 1414.75Z" fill="#3C46DE"/>
<path d="M2875.23 1552.62C2884.96 1541.72 2894.7 1530.83 2904.43 1519.94C2907.99 1515.96 2915.08 1517.32 2918.22 1520.95C2922.03 1525.36 2920.75 1530.78 2917.2 1534.74C2907.47 1545.63 2897.74 1556.52 2888 1567.42C2884.44 1571.39 2877.35 1570.03 2874.22 1566.4C2870.4 1561.98 2871.68 1556.58 2875.23 1552.62Z" fill="#3C46DE"/>
<path d="M2825.06 1325.36C2837.7 1325.36 2836.39 1344.87 2823.86 1344.87C2811.22 1344.87 2812.52 1325.36 2825.06 1325.36Z" fill="#F44336"/>
<path d="M2803.88 1199.95C2816.52 1199.95 2815.22 1219.46 2802.68 1219.46C2790.04 1219.46 2791.35 1199.95 2803.88 1199.95Z" fill="#F44336"/>
<path d="M2644.27 1206.46C2656.91 1206.46 2655.6 1225.98 2643.07 1225.98C2630.43 1225.98 2631.74 1206.46 2644.27 1206.46Z" fill="#F44336"/>
<path d="M2702.9 1390.51C2715.54 1390.51 2714.24 1410.02 2701.71 1410.02C2689.06 1410.02 2690.36 1390.51 2702.9 1390.51Z" fill="#F44336"/>
<path d="M2952.08 1502.88C2964.74 1502.88 2963.43 1522.4 2950.9 1522.4C2938.26 1522.4 2939.56 1502.88 2952.08 1502.88Z" fill="#F44336"/>
<path d="M2725.7 1527.32C2738.34 1527.32 2737.04 1546.83 2724.51 1546.83C2711.87 1546.83 2713.16 1527.32 2725.7 1527.32Z" fill="#F44336"/>
<path d="M2513.96 1261.84C2526.6 1261.84 2525.31 1281.35 2512.78 1281.35C2500.14 1281.35 2501.43 1261.84 2513.96 1261.84Z" fill="#F44336"/>
<path d="M2505.83 1082.68C2518.47 1082.68 2517.16 1102.19 2504.63 1102.19C2491.99 1102.19 2493.3 1082.68 2505.83 1082.68Z" fill="#F44336"/>
<path d="M2412.99 940.976C2425.63 940.976 2424.32 960.496 2411.79 960.496C2399.15 960.496 2400.46 940.976 2412.99 940.976Z" fill="#F44336"/>
<path d="M2328.3 729.257C2340.94 729.257 2339.63 748.763 2327.1 748.763C2314.46 748.763 2315.76 729.257 2328.3 729.257Z" fill="#F44336"/>
<path d="M762.705 2821.24C771.76 2810.95 781.713 2800.68 794.583 2795.96C822.36 2785.77 852.751 2805.07 870.652 2828.63C891.533 2856.11 880.728 2903.72 872.901 2934.44C863.623 2970.85 877.611 3013.81 908.919 3037.17C927.937 3051.36 953.811 3062.31 926.788 3084.95C910.317 3098.75 887.681 3095.2 867.248 3095.71C850.236 3096.12 831.697 3096.07 818.305 3085.56C781.367 3056.59 790.499 2990.76 768.845 2952.91C757.404 2932.92 737.657 2917.05 732.861 2894.52C727.156 2867.72 744.604 2841.8 762.705 2821.24" fill="#3C46DE"/>
<path d="M915.155 2422.69C913.981 2447.32 915.559 2472.6 920.248 2496.19C924.405 2517.11 937.231 2535.71 942.736 2556.81C946.536 2571.37 940.725 2582.17 932.392 2594.67C931.032 2596.71 929.303 2598.88 926.864 2599.12C924.987 2599.32 923.224 2598.28 921.62 2597.29C897.037 2582.05 872.645 2565.79 853.339 2544.25C833.341 2521.95 826.064 2497.41 817.583 2469.6C804.704 2430.97 782.769 2394.41 774.627 2355.09C773.611 2350.19 772.599 2345.07 773.901 2340.23C775.383 2334.72 779.617 2330.45 783.749 2326.52C805.001 2306.32 831.597 2287.76 858.805 2276.79C863.987 2274.71 869.304 2272.91 874.252 2270.31C878.288 2270.81 880.704 2274.93 882.5 2278.59C891.876 2297.64 904.823 2314.64 912.893 2334.41C921.905 2356.48 920.167 2374.77 917.247 2398.25C916.251 2406.27 915.548 2414.45 915.155 2422.69" fill="#3C46DE"/>
<path d="M890.889 688.773C889.447 683.013 890.488 666.853 894.009 640.267C898.453 623.2 905.836 609 916.159 597.653C926.48 586.307 939.741 577.813 955.943 572.187C975.436 564.107 993.177 559.84 1009.23 558.787C1046.95 556.333 1092.36 580.24 1112.11 612.72C1120.53 626.573 1125.23 642.373 1128.91 658.173C1142.8 717.72 1148.92 811.36 1100.81 858.227C1096.55 862.387 1091.81 866.053 1087.04 869.613C1081.28 873.92 1075.35 878.147 1068.63 880.707C1040.16 891.573 1011.94 874.12 987.073 860.987C968.271 851.053 952.277 837.173 939.877 819.867C912.492 781.653 902.124 733.56 890.889 688.773Z" fill="#F08A6D"/>
<path d="M471.944 479.667C491.059 547.147 513.667 613.893 534.325 680.893C540.839 702.013 547.375 723.2 556.403 743.387C566.099 765.053 578.907 786.6 578.827 810.333C578.729 838.973 561.621 856.307 538.167 867.68C520.655 876.173 492.965 897.453 472.833 895.573C454.968 893.907 443.776 875.947 436.063 859.747C411.356 807.853 393.488 752.853 382.056 696.547C376.361 668.507 372.247 640.147 369.571 611.653C366.949 583.733 369.028 554.867 365.648 527.187C362.932 504.947 363.543 483.053 364.027 460.4C364.221 451.227 364.671 441.32 370.408 434.16C378.057 424.613 391.019 424.227 401.371 419.627C415.315 413.44 429.893 409.773 444.479 416.48C464.377 425.653 463.348 448.747 468.648 467.907C469.735 471.827 470.833 475.747 471.944 479.667" fill="#F08A6D"/>
<path d="M827.592 938.827C881.133 911.307 946.507 920.653 1006.4 930.88C1056.04 939.36 1109.93 950.173 1142.52 988.587C1161.77 1011.28 1170.83 1040.84 1176.87 1069.99C1198.43 1173.89 1190.85 1300.07 1141.91 1394.97C1092.41 1490.95 1022.6 1574.61 971.739 1669.8C963.763 1684.72 954.196 1701 937.973 1705.81C927.253 1708.99 915.769 1706.4 904.893 1703.79C822.463 1684.08 740.031 1664.36 657.6 1644.64C654.176 1643.81 650.647 1642.95 647.821 1640.85C639.869 1634.93 641.084 1622.89 643.113 1613.2C659.787 1533.59 694.607 1443.25 683.983 1363.55C673.029 1281.36 695.767 1198.89 717.539 1120.39C736.419 1052.32 760.305 977.52 821.468 942.174C823.49 941 825.533 939.893 827.592 938.827" fill="#6DC6F0"/>
<path d="M1260.16 829.8C1230.89 793.494 1247.49 746.827 1253.39 704.227C1260.48 652.96 1268.93 601.867 1278.71 551.04C1286.2 512.08 1294.05 472.76 1301.21 434.08C1305.56 410.587 1314.93 380.054 1343.51 376.614C1370.28 373.414 1390.07 391.96 1397.11 416.68C1402.52 435.694 1401.13 455.88 1399.69 475.6C1394.77 543.307 1389.85 611.027 1384.93 678.734C1381.23 729.64 1392.56 783.893 1366.68 830.227C1356.65 848.173 1338.2 862.6 1317.65 862.774C1296.25 862.947 1274.91 848.054 1260.16 829.8" fill="#F08A6D"/>
<path d="M1058.8 994.427C1093.55 954.92 1125.09 912.587 1152.97 867.973C1170.67 839.667 1192.33 814.013 1209.36 785.28C1225.87 757.413 1232.53 725.213 1242.05 694.387C1295 718.48 1347.53 743.467 1399.65 769.307C1404.35 771.627 1409.31 774.213 1411.91 778.773C1415.63 785.307 1413.25 793.493 1410.81 800.6C1401.33 828.213 1391.84 855.827 1382.36 883.427C1359.41 876.547 1341.25 902.627 1331.16 924.347C1284.4 1024.92 1230.32 1122.04 1179.84 1220.61C1169.04 1242.21 1088.41 1160.43 1082.35 1153.12C1055.29 1120.55 1051.13 1089.56 1041.95 1047.57C1040.23 1039.71 1038.51 1031.56 1040.08 1023.67C1042.15 1013.2 1049.65 1004.76 1056.73 996.773C1057.42 995.987 1058.11 995.213 1058.8 994.427" fill="#6DC6F0"/>
<path d="M1055.77 850.653C1060.01 859.013 1054.9 870.68 1053.46 879.52C1050.66 896.64 1050.38 914.413 1048.79 931.827C1046.85 953.2 1046.59 974.733 1048.03 996.147C1048.6 1004.71 1049.38 1013.69 1045.9 1021.53C1044.13 1025.55 1041.34 1029 1038.58 1032.4C1032.92 1039.4 1027.26 1046.4 1021.59 1053.39C1016.08 1060.21 1009.52 1067.59 1000.77 1068.11C994.249 1068.51 988.231 1064.92 982.689 1061.45C947.357 1039.37 910.531 1015.76 890.444 979.253C889.217 977.027 888.036 974.68 887.851 972.147C887.679 969.76 888.392 967.427 889.093 965.147C900.596 927.747 910.385 889.813 918.425 851.52C923.804 825.907 926.623 797.747 925.629 771.467C925.517 768.52 925.361 765.493 926.321 762.693C927.283 759.907 929.664 757.373 932.611 757.213C935.403 757.067 937.839 758.96 939.98 760.76C955.548 773.827 969.88 786.6 986.647 798.093C1004.73 810.493 1022.76 822.973 1040.83 835.4C1048.56 840.733 1053.23 845.653 1055.77 850.653" fill="#F08A6D"/>
<path d="M1399.15 437.92C1413.25 421.4 1419.57 399.893 1426.57 380.08C1435.44 354.987 1460.07 323.947 1460.72 297.467C1460.99 286.733 1454.79 275.067 1444.32 272.64C1437.41 271.04 1429.37 273.44 1423.55 269.387C1416.37 264.4 1415.95 251.653 1407.45 249.56C1399.61 247.64 1391.77 257.16 1384.31 254.093C1379.69 252.186 1378.16 246.56 1375.12 242.613C1368.28 233.693 1353.71 234.48 1344.84 241.387C1320.05 260.693 1312.4 310.813 1309.73 340C1299.45 321.933 1293.53 301.4 1292.63 280.626C1292.48 277.36 1292.36 273.813 1290.25 271.307C1287.47 268.013 1282.08 268.013 1278.44 270.333C1274.8 272.653 1272.63 276.68 1271.11 280.72C1267.56 290.213 1266.88 300.52 1266.84 310.667C1266.76 336.387 1270.63 362.12 1278.28 386.667C1284.92 407.947 1295.64 429.733 1315.2 440.413C1335.56 451.547 1367.37 464.093 1387.72 448.72C1392.04 445.453 1395.81 441.827 1399.15 437.92" fill="#F08A6D"/>
<path d="M395.396 277.694C408.556 277.027 432.473 274.4 441.596 285.654C455.907 303.307 451.467 331.587 456.195 352.08C465.141 343.107 474.952 334.32 480.479 322.454C486.92 308.627 488.583 292 499.293 281.134C501.363 279.04 503.987 277.134 506.943 277.2C538.616 277.947 490.84 376.907 488.689 389.68C485.393 409.254 483.505 429.067 472.416 446.254C470.807 448.747 469.056 451.16 466.947 453.254C463.819 456.347 459.988 458.627 456.129 460.747C442.324 468.334 427.069 475.067 411.64 478.56C387.253 484.08 365.523 472.187 355.383 449.88C350.119 438.294 347.769 425.64 345.463 413.134C342.856 398.987 338.657 384.24 338.425 369.867C338.216 356.814 330.96 344.32 330.96 331.667C325.357 309.334 328.556 287.574 355.099 282.854C365.181 281.054 380.037 278.48 395.396 277.694" fill="#F08A6D"/>
<path d="M665.997 1506.19C692.653 1527.36 723.173 1541.99 753.017 1558.47C790.996 1579.44 831.585 1595.11 874.064 1603.97C908.721 1473.67 977.652 1353.47 995.504 1218.61C996.269 1212.84 1005.33 1213.36 1004.57 1219.17C986.651 1354.51 917.839 1475.09 882.951 1605.77C921.899 1613.41 969.136 1621.23 1007.3 1610.91C1003.16 1624.79 998.972 1639 999.623 1653.48C1000.27 1667.95 1006.68 1683 1019.25 1690.21C1025.37 1804.83 1099.45 1906.19 1160.51 2000.88C1210.73 2078.8 1250.21 2162.68 1284.48 2248.67C1291.84 2267.12 1299.32 2286.31 1298.25 2306.15C1297.37 2322.52 1290.71 2337.97 1283.93 2352.92C1231.56 2468.53 1166.6 2578.43 1090.68 2680.15C1030.58 2760.65 960.607 2835.43 885.627 2902.2C882.355 2905.12 878.616 2908.19 874.236 2908.08C870.62 2907.99 867.471 2905.71 864.607 2903.51C853.147 2894.68 842.1 2885.32 831.496 2875.48C820.612 2911.12 824.951 2949.09 830.019 2985.73C830.619 2990.07 823.944 2991.41 823.341 2987.05C817.976 2948.28 813.421 2907.85 825.973 2870.27C821.209 2865.71 816.529 2861.05 811.961 2856.29C797.571 2841.31 785.008 2822.49 780.657 2801.85C797.949 2781.33 809.323 2753.65 823.464 2730.72C840.824 2702.57 858.308 2674.48 874.935 2645.89C885.384 2627.92 895.797 2609.92 906.192 2591.92C907.529 2589.6 915.804 2570.76 918.589 2570.47C918.403 2570.37 918.216 2570.27 918.028 2570.12C901.192 2557.55 884.993 2544.21 869.367 2530.16C855.767 2517.93 837.972 2504.43 832.539 2486.11C826.087 2464.36 823.364 2441.61 816.827 2419.77C809.796 2396.29 800.349 2373.57 789.372 2351.68C787.405 2347.75 793.528 2344.77 795.497 2348.71C814.209 2386.03 827.519 2425.57 835.177 2466.61C837.361 2478.32 839.556 2488.95 846.984 2498.63C853.077 2506.57 861.14 2513.31 868.423 2520.12C885.333 2535.93 903.273 2550.61 921.816 2564.47C921.865 2564.51 921.899 2564.55 921.945 2564.59C967.512 2484.83 1013.08 2405.07 1058.65 2325.31C1062.29 2318.93 1066.05 2312.05 1065.47 2304.73C1065.07 2299.55 1062.5 2294.8 1059.97 2290.25C1026.38 2229.75 991.591 2157.88 945.676 2105.77C895.648 2049 841.001 1996.61 787.533 1943.13C710.821 1866.41 636.511 1807.55 625.951 1691.79C623.989 1670.29 671.941 1510.91 665.997 1506.19" fill="#13234D"/>
<path d="M840.553 2286.32C840.889 2284.51 842.219 2283.07 843.496 2281.75C875.588 2248.59 912.805 2221.31 946.148 2189.48C981.68 2155.57 1017.58 2122.03 1053.83 2088.89C1088.2 2057.48 1122.89 2026.44 1157.87 1995.72C1187.67 1969.56 1222.53 1962.61 1251.04 1939.32C1244.24 1944.88 1106.59 1909.73 1087.92 1907.05C1073.29 1904.95 1056.97 1902.64 1040.51 1899.33C1008.65 1892.91 976.252 1882.68 954.565 1862.59C933.533 1843.11 920.152 1816.29 913.699 1788.36C906.568 1757.51 901.959 1672.4 937.897 1654.41C956.527 1645.09 991.487 1656.97 1011.44 1659.13C1042.72 1662.52 1074.17 1663.89 1105.44 1667.71C1170.57 1675.63 1235.31 1687.87 1298.11 1707.04C1362.41 1726.67 1430.6 1734.87 1494.04 1756.96C1536.57 1771.77 1567.68 1818.95 1562.21 1864.03C1557.69 1901.41 1535.21 1934.03 1511.36 1963.16C1455.24 2031.68 1388.01 2090.08 1317.89 2143.8C1247.09 2198.04 1173.59 2251.77 1095.53 2295.35C1035.82 2328.71 969.941 2360.68 918.396 2405.99C917.781 2406.52 917.088 2407.09 916.272 2407.08C915.301 2407.07 914.563 2406.25 913.959 2405.49C910.253 2400.85 881.289 2373.88 883.933 2367.83C873.135 2392.52 871.675 2420.29 872.417 2447.31C872.537 2451.71 865.741 2451.24 865.621 2446.89C864.812 2417.44 866.863 2387.24 879.765 2360.73C863.205 2332.35 844.723 2298.47 841.763 2291.79C840.995 2290.05 840.208 2288.19 840.553 2286.32" fill="#13234D"/>
<path d="M557.432 763.373C555.828 765.693 616.363 808.48 620.924 814.16C630.816 826.466 622.259 840.96 632.025 851.907C633.779 853.867 635.999 855.346 638.219 856.76C683.543 885.6 741.844 908.4 795.112 916.853C821.171 920.987 847.515 923.333 873.893 923.853C871.029 988.027 842.62 1094.69 783.996 1131C729.724 1164.63 645.237 1097.79 604.127 1068.12C538.693 1020.91 478.223 960.426 435.781 890.093C429.329 879.4 409.127 853.147 418.691 839.907C425.395 830.627 450.909 833.04 461.495 829.933C498.156 819.173 535.585 794.88 557.432 763.373" fill="#6DC6F0"/>
<path d="M860.369 602.04C866.739 608.493 873.932 613.747 881.908 617.8C881.311 617.707 880.661 617.76 879.975 618.067L869.791 622.68C865.777 624.493 868.773 630.6 872.763 628.8C874.291 628.107 875.819 627.413 877.348 626.733C860.124 655.867 881.557 699.92 891.796 727.56C901.803 754.573 911.808 781.587 921.816 808.587C932.076 804.507 942.335 800.413 952.593 796.333C954.456 795.587 956.584 794.533 956.915 792.56C957.152 791.133 956.333 789.773 955.572 788.547C942.179 767.013 935.509 741.373 936.721 716.053C941.14 709.36 952.088 710.533 957.733 716.24C963.379 721.947 965.179 730.307 966.923 738.133C970.081 752.333 974.496 767.4 985.887 776.427C988.665 778.627 993.408 780.053 995.215 777C995.828 775.973 995.855 774.693 995.789 773.493C995.195 762.427 988.443 752.76 984.917 742.253C977.453 720 985.584 683.44 1000.5 665.227C1003.83 661.173 1008.04 656.013 1005.61 651.373C1003.53 647.4 998.108 647.04 993.627 646.947C973.261 646.547 953.628 640.84 934.735 632.933C935.44 632.16 936.169 631.413 936.956 630.72C946.485 622.4 960.92 623.2 973.111 626.587C985.303 629.973 997.264 635.507 1009.91 635.093C1034.36 634.307 1052.81 612.787 1077.69 627.627C1084.49 631.68 1115.15 677.653 1114.68 677.76C1112.07 678.373 1109.51 679.293 1107 680.6C1105.99 681.12 1105.44 681.933 1105.25 682.813C1104.72 683.2 1104.16 683.56 1103.64 684C1100.15 686.84 1104.55 691.547 1108.08 689.147C1111.45 686.867 1115.13 685.48 1118.99 684.88C1124.08 693.013 1129.68 700.787 1136.36 707.333C1137.89 708.84 1139.52 710.293 1141.49 711.12C1147 713.4 1153.59 709.773 1156.4 704.52C1159.23 699.267 1159.12 692.96 1158.39 687.04C1155.4 663.08 1141.07 645.053 1130.91 624C1139.39 626.027 1147.88 628.067 1156.36 630.093C1160.36 631.053 1164.92 631.92 1168.31 629.6C1173.37 626.12 1172.23 618.32 1169.67 612.72C1157.67 586.547 1129.6 572.333 1103.48 560.213C1087.24 552.667 1064.36 542.987 1046.06 545.2C1048.65 547.027 1051.12 549.013 1053.68 550.893C1021.6 527.307 974.852 506.787 937.799 528.867C910.737 545 893.26 569.76 888.496 600.947C884.692 570.867 900.977 539.56 928.256 523.707C944.972 514 964.611 507.64 984.123 507.827C1006.9 508.053 1024.36 518.347 1041.91 531.88C1045.39 534.56 1049.15 528.88 1045.69 526.213C1025.92 510.973 1005.27 499.373 979.479 501.227C958.017 502.787 936.356 509.053 918.768 521.827C896.053 538.333 881.363 564.8 881.033 591.72C877.488 580.013 875.439 567.933 874.98 555.453C874.819 551.107 868.021 550.64 868.184 555.04C868.877 573.867 872.824 591.907 880.103 609.093C874.807 605.907 869.933 602.067 865.525 597.6C862.453 594.48 857.288 598.92 860.369 602.04" fill="#13234D"/>
<path d="M987.592 1641.09C1008.96 1592.09 1041.01 1549.36 1071.85 1506.08C1104.61 1460.12 1132.8 1412.64 1151.13 1359.01C1186.89 1254.35 1185.76 1138.84 1156.77 1032.77C1155.23 1027.12 1164.13 1025.39 1165.68 1031.01C1194.55 1136.64 1195.23 1249.88 1162.12 1354.63C1145.67 1406.71 1119.4 1453.8 1088.33 1498.47C1055.53 1545.63 1019.33 1590.93 996.207 1643.96C993.884 1649.29 985.255 1646.45 987.592 1641.09" fill="#13234D"/>
<path d="M632.2 845.933C699.421 884.293 776.444 922.307 855.725 920.013C861.592 919.84 860.971 928.907 855.173 929.08C774.268 931.427 695.752 892.613 627.151 853.48C622.061 850.573 627.147 843.053 632.2 845.933" fill="#13234D"/>
<path d="M522.227 912.547C562.444 893.68 596.448 864.64 621.377 827.947C604.441 809.12 587.507 790.294 570.572 771.467C566.66 767.12 573.529 761.187 577.447 765.534C595.156 785.227 612.864 804.907 630.573 824.6C631.928 826.107 632.003 828.427 630.908 830.094C604.977 869.44 568.853 900.707 526.192 920.707C520.9 923.201 516.913 915.04 522.227 912.547" fill="#13234D"/>
<path d="M1236.45 1107.11C1265.79 1047.92 1295.12 988.733 1324.47 929.533C1327.8 922.813 1331.13 916.093 1334.47 909.36C1337.03 904.173 1339.53 896.147 1344.37 892.467C1347.93 889.76 1351.04 888.533 1355.44 887.747C1364.79 886.08 1369.57 883.587 1374.41 875.24C1381.77 862.52 1384.49 845.826 1388.79 831.893L1404.51 780.707C1406.24 775.107 1414.84 778 1413.13 783.573C1403.96 813.413 1396.27 844.307 1385.13 873.48C1381.75 882.333 1376.45 889.893 1367.99 894.333C1360.76 898.133 1352.6 895.133 1347.45 903.52C1343.04 910.733 1339.76 918.933 1336 926.52C1305.33 988.4 1274.67 1050.28 1244 1112.16C1241.4 1117.39 1233.89 1112.28 1236.45 1107.11" fill="#13234D"/>
<path d="M1018.36 1105.04L1018.39 1105.23C1021.49 1105.91 1024.32 1107.97 1025.43 1111.8C1038 1155.08 1043.32 1199.71 1045.61 1244.6C1048.03 1291.96 1044.54 1339.68 1049.17 1386.91C1052.52 1421.17 1063.6 1451.73 1079.35 1479.87C1097.17 1511.73 1129.04 1536.63 1158.87 1556.19C1175.48 1567.08 1192.19 1578.03 1210.4 1585.97C1217.63 1607.25 1227.04 1627.8 1238.43 1647.17C1218.69 1644.53 1198.56 1644.75 1178.88 1647.81C1175.15 1648.4 1155.39 1625.89 1151.67 1622.65C1143.67 1615.67 1135.88 1609.23 1129.59 1600.6C1116.92 1583.2 1101.59 1569.01 1087.63 1552.61C1056.34 1515.88 1032.49 1472.04 1024.59 1424.07C1020.51 1399.28 1020.5 1373.88 1020.07 1348.84C1019.62 1322.29 1018.59 1295.77 1017.06 1269.28C1013.96 1215.51 1008.27 1161.87 1000.55 1108.57C998.875 1097.01 1016.68 1093.44 1018.36 1105.04" fill="#E74844"/>
<path d="M874.132 1033.85C894.689 1055 915.641 1075.75 936.987 1096.09C946.547 1105.21 964.445 1128.89 979.667 1123.73C985.775 1121.65 991.468 1109.88 994.972 1104.81C998.987 1099 1003 1093.2 1007.02 1087.4C1008.57 1085.15 1012.46 1084.49 1014.22 1086.96C1021.2 1096.72 1031.06 1110.45 1045.01 1104.88C1054.35 1101.15 1057.66 1081.71 1060.19 1073.36C1067 1050.88 1071.08 1027.67 1073.2 1004.29C1073.72 998.467 1082.79 999.027 1082.25 1004.85C1079.39 1036.69 1074.01 1072.28 1059.83 1101.27C1055.33 1110.48 1047.64 1115.17 1037.53 1115.29C1026.25 1115.43 1017.51 1106.36 1010.91 1097.72C1007.31 1102.93 1003.71 1108.13 1000.11 1113.35C996.264 1118.89 992.484 1126.27 986.599 1130.01C974.511 1137.69 961.936 1131.36 952.213 1122.67C922.744 1096.35 894.793 1068.11 867.257 1039.79C863.177 1035.59 870.063 1029.67 874.132 1033.85" fill="#13234D"/>
<path d="M809.073 1185.81C841.3 1204.69 876.519 1217.12 913.475 1222.56C919.235 1223.41 918.711 1232.48 912.923 1231.63C874.328 1225.93 837.681 1213.08 804.023 1193.35C798.968 1190.39 804.047 1182.87 809.073 1185.81Z" fill="#13234D"/>
<path d="M1086.07 1233.32C1109.49 1237.07 1132.59 1235.52 1155.31 1228.69C1160.92 1227 1162.63 1235.92 1157.07 1237.6C1133.67 1244.63 1109.64 1246.24 1085.52 1242.37C1079.77 1241.45 1080.29 1232.39 1086.07 1233.32" fill="#13234D"/>
<path d="M696.173 1606.49C779.928 1657.64 880.561 1677.37 977.432 1661.65C983.201 1660.72 984.984 1669.61 979.195 1670.56C879.905 1686.67 776.968 1666.45 691.124 1614.04C686.123 1610.99 691.193 1603.45 696.173 1606.49" fill="#6DC6F0"/>
<path d="M831.66 1654.31C833.617 1642.69 835.576 1631.08 837.534 1619.48C838.5 1613.75 847.568 1614.27 846.597 1620.03C844.637 1631.64 842.679 1643.25 840.72 1654.85C839.755 1660.57 830.687 1660.07 831.66 1654.31" fill="#6DC6F0"/>
<path d="M712.207 1604.8C715.917 1595.59 719.628 1586.37 723.339 1577.17C725.519 1571.76 734.141 1574.6 731.955 1580.04C728.243 1589.24 724.532 1598.45 720.821 1607.67C718.64 1613.07 710.019 1610.23 712.207 1604.8Z" fill="#6DC6F0"/>
<path d="M724.193 1610.8C728.553 1600.13 732.915 1589.48 737.276 1578.81C739.484 1573.41 748.107 1576.25 745.891 1581.68C741.531 1592.33 737.169 1603 732.808 1613.67C730.6 1619.07 721.977 1616.21 724.193 1610.8Z" fill="#6DC6F0"/>
<path d="M886.822 2898.83C937.485 2862.39 978.97 2811.75 1019.48 2764.75C1059.86 2717.91 1098 2669.13 1133.37 2618.4C1168.64 2567.83 1200.79 2515.05 1229.21 2460.33C1243.55 2432.76 1256.71 2404.57 1268.87 2375.97C1280.23 2349.28 1290.97 2320.85 1289.2 2291.8C1289.01 2291.47 1288.85 2291.12 1288.75 2290.72C1276.63 2247.16 1257.41 2206.29 1236.47 2166.39C1215.45 2126.39 1193.39 2086.89 1171.44 2047.41C1125.83 1965.35 1078.25 1884.25 1024.22 1807.41C1020.89 1802.67 1027.73 1796.68 1031.1 1801.48C1055.88 1836.72 1079.29 1872.84 1101.8 1909.53C1102.65 1909.19 1103.64 1909.09 1104.73 1909.39C1151.19 1921.88 1200.15 1927.68 1247.48 1936.2C1253.17 1937.23 1252.67 1946.29 1246.92 1945.27C1200.87 1936.97 1153.36 1931.2 1107.95 1919.59C1131.97 1959.12 1154.99 1999.29 1177.52 2039.69C1200.21 2080.41 1222.85 2121.21 1244.63 2162.43C1262.95 2197.07 1279.67 2232.61 1291.84 2269.85C1293.55 2270.07 1295.15 2271.15 1295.67 2273.29C1303.09 2304.23 1294.89 2334.76 1283.71 2363.69C1272.15 2393.6 1258.24 2422.72 1243.91 2451.37C1215.15 2508.87 1181.76 2563.99 1145.4 2616.97C1108.91 2670.12 1069.01 2720.89 1027.03 2769.8C1007.05 2793.05 986.51 2815.83 965.596 2838.25C942.974 2862.51 919.759 2886.27 892.753 2905.69C888.045 2909.08 882.06 2902.24 886.822 2898.83" fill="#6DC6F0"/>
<path d="M1090.31 2300.69C1095.2 2300.57 1104.44 2295.12 1107.89 2293.77C1115.24 2290.89 1122.6 2288.03 1129.95 2285.15C1135.36 2283.03 1139.37 2291.17 1133.91 2293.32C1124.45 2297.01 1115.01 2300.71 1105.56 2304.41C1099.57 2306.75 1092.31 2311.64 1085.79 2309.09C1083.69 2308.27 1082.83 2306.65 1082.69 2304.51L1082.61 2303.2C1082.32 2298.67 1087.71 2298.05 1090.31 2300.69" fill="#6DC6F0"/>
<path d="M1086.29 2279.69C1096.47 2274.69 1105.73 2268.44 1114.19 2260.89C1118.56 2257 1124.49 2263.87 1120.12 2267.76C1111.11 2275.81 1101.11 2282.53 1090.25 2287.87C1085 2290.44 1081.03 2282.28 1086.29 2279.69Z" fill="#6DC6F0"/>
<path d="M981.21 2138.81C1015.3 2189.2 1044.66 2242.49 1068.88 2298.31C1071.2 2303.65 1063.05 2307.65 1060.71 2302.27C1036.82 2247.2 1007.97 2194.47 974.336 2144.75C971.101 2139.96 977.928 2133.96 981.21 2138.81" fill="#6DC6F0"/>
<path d="M1252.56 1939.75C1251.48 1937.69 1251.72 1934.87 1254.37 1933.47C1264.35 1928.23 1274.33 1922.97 1284.31 1917.72C1289.49 1915 1293.45 1923.16 1288.27 1925.89C1280.92 1929.76 1273.57 1933.63 1266.23 1937.49C1279.2 1937.76 1292.11 1938.69 1305 1940.36C1310.79 1941.12 1310.25 1950.17 1304.45 1949.43C1288.36 1947.35 1272.24 1946.35 1256.01 1946.44C1252.09 1946.47 1251.08 1942.44 1252.56 1939.75" fill="#6DC6F0"/>
<path d="M1338.29 316.374C1338.35 320.827 1339.25 325.107 1341.01 329.2C1342.59 333.387 1349.61 346.573 1354.8 333.413C1357.13 327.507 1358.41 321.053 1359.85 314.893C1363.05 301.12 1365.72 287.44 1371.6 274.493C1373.4 270.533 1379.88 272.654 1378.07 276.64C1372.73 288.387 1369.92 300.747 1367.16 313.28C1366.33 317.04 1365.61 322.36 1364.43 327.6C1366.37 325.6 1370.67 326.547 1370.32 330.053C1369.35 336.44 1369.31 343.707 1375.65 347.413C1376.17 347.707 1376.75 347.987 1377.35 348.013C1378.15 348.053 1378.91 347.667 1379.57 347.227C1387.55 341.907 1387.59 327.227 1391.17 319.053C1396.81 306.2 1404.44 294.32 1413.17 283.374C1415.88 279.96 1421.56 283.72 1418.83 287.16C1410.41 297.707 1403.35 308.96 1397.63 321.2C1395 326.84 1392.89 332.72 1390.95 338.64C1389.92 341.734 1389.2 345.573 1387.72 348.867C1388.35 349.133 1388.92 349.587 1389.36 350.267C1401.11 368.48 1418.69 335.333 1422.99 326.96C1428.51 316.173 1434.11 305.867 1443.85 298.347C1447.31 295.68 1451.79 300.814 1448.29 303.507C1432.05 316.027 1427.96 337.52 1414.8 352.627C1406.32 362.36 1391.84 365.213 1383.85 354.08C1369.28 366.613 1363.07 343.92 1363.4 331.653C1362 336.507 1360.03 340.907 1356.99 343.44C1341.39 356.36 1332.09 327.213 1331.49 315.96C1331.27 311.573 1338.07 312.054 1338.29 316.374" fill="#A44946"/>
<path d="M1030.61 779.547C1037.67 798.64 1057.38 803.587 1075.69 805.493C1086.17 806.587 1079.35 796.4 1079.03 790.84C1078.72 785.574 1079.41 779.987 1082.21 775.36C1085.13 770.507 1088.6 767.173 1093.55 764.427C1103.03 759.187 1091.63 747.187 1088.44 740.96C1082.31 728.973 1082.4 714.574 1086.35 702C1087.65 697.8 1094.12 699.974 1092.8 704.147C1089.19 715.694 1089.83 726.854 1094.56 737.987C1097.29 744.414 1106.16 751.253 1106.03 758.88C1105.92 764.333 1103.56 767.12 1098.84 769.547C1085.25 776.547 1084.27 786.907 1088.97 800.24C1094.83 816.814 1071.87 812.107 1063.56 810.734C1052.04 808.84 1040.86 804.107 1032.98 795.96C1038.84 820.133 1056.96 840.227 1081.09 848.2C1085.27 849.587 1083.11 856.04 1078.95 854.667C1046.98 844.094 1025.15 814.4 1024.15 780.827C1024.05 777.48 1029.44 776.387 1030.61 779.547" fill="#A44946"/>
<path d="M1041.87 699.534C1042.02 699.28 1042.23 699.054 1042.47 698.854C1042.53 698.627 1042.58 698.4 1042.64 698.174C1043.53 695.014 1047.48 695.44 1048.94 697.76C1049.96 699.4 1050.68 701.147 1051.16 702.96C1053.11 706.08 1052.67 710.36 1051.17 714.174C1051.04 714.92 1050.85 715.68 1050.57 716.427C1050.26 717.267 1049.73 717.84 1049.12 718.187C1049.11 718.214 1049.1 718.227 1049.09 718.24C1048.32 719.414 1047.01 719.854 1045.75 719.654C1044.22 720.12 1042.53 719.36 1041.69 717.893C1041.18 717.013 1040.79 716.08 1040.46 715.147C1039.7 714.2 1039.2 712.987 1039.05 711.467C1038.65 707.227 1039.81 703.214 1041.87 699.534" fill="#13234D"/>
<path d="M1016.76 688.707C1020.59 684.36 1025.15 680.92 1030.11 678.48C1030.75 677.867 1031.44 677.6 1032.11 677.6C1040.81 673.88 1050.6 673.187 1059.94 676.08C1061.3 676.307 1062.67 676.6 1064.04 676.947C1065.16 677.227 1065.83 677.88 1066.13 678.667C1068.47 680.653 1067.83 685.2 1064.07 684.773C1053.51 683.56 1043.26 684.067 1032.89 686.333C1032.63 686.387 1032.38 686.413 1032.14 686.413C1031.93 686.747 1031.65 687.067 1031.25 687.373C1031.01 687.56 1030.76 687.747 1030.51 687.933C1030 688.48 1029.49 689.027 1028.97 689.573C1028.46 690.12 1027.84 690.387 1027.21 690.453C1027.06 690.56 1026.92 690.667 1026.78 690.773C1026.15 691.253 1025.49 691.467 1024.86 691.507C1023.64 692.267 1022.39 692.973 1021.08 693.667C1018.26 695.133 1014.46 691.32 1016.76 688.707" fill="#13234D"/>
<path d="M1112.97 712.267C1112.65 708.16 1113 704.187 1114.16 700.187C1114.81 697.974 1117.47 697.32 1119.29 698.427C1123.53 701.013 1125.21 706.134 1123.92 710.68C1123.59 713.414 1122.55 716.067 1120.76 718.24C1119.81 719.414 1118.39 720.12 1116.87 719.587C1113.35 718.32 1112.36 715.227 1112.97 712.267" fill="#13234D"/>
<path d="M993.757 836.493C995.579 838.88 997.412 841.267 999.269 843.64C997.4 840.294 1002.16 836.4 1004.75 839.693C1009.95 846.307 1015.44 852.653 1021.24 858.733C1023.61 861.213 1020.98 864.454 1018.27 864.254C1024.5 869.6 1031.43 874.093 1039.53 877.133C1055.84 883.24 1069.47 877.574 1081.25 868.174C1079.97 866.907 1079.6 864.827 1081.47 863.44C1088.21 858.454 1093.87 852.467 1098.43 845.413C1100.83 841.733 1106.47 845.52 1104.09 849.2C1103.08 850.747 1102 852.24 1100.88 853.693C1102.03 854.987 1102.43 857.107 1100.93 858.733C1086.13 874.76 1068.28 890.787 1044.65 885.493C1019.51 879.867 1003.52 860.533 988.601 840.933C985.959 837.467 991.091 832.987 993.757 836.493" fill="#13234D"/>
<path d="M1033.53 866.32C1041.04 870.774 1049.47 872.707 1058.17 871.84C1062.5 871.414 1063.87 878.08 1059.49 878.52C1048.9 879.574 1038.91 877.427 1029.75 871.974C1025.97 869.734 1029.77 864.094 1033.53 866.32Z" fill="#13234D"/>
<path d="M993.811 815.52C995.072 818.547 996.333 821.573 997.595 824.6C999.273 828.64 993.163 831.64 991.469 827.573C990.208 824.547 988.947 821.52 987.687 818.493C986.007 814.467 992.117 811.453 993.811 815.52" fill="#13234D"/>
<path d="M358.151 344.587C362.164 351.04 366.693 356.747 371.96 362.2C379.639 362.16 381.583 359.28 377.785 353.547C376.463 349.787 374.936 346.107 373.647 342.333C369.323 329.667 367.388 316.453 366.728 303.133C366.512 298.747 373.311 299.213 373.524 303.547C374.272 318.693 377.293 333.16 382.64 347.347C383.632 349.987 384.791 352.867 385.593 355.8C386.663 355.813 387.669 356.387 388.164 357.76C397.403 362.707 401.697 361.333 401.048 353.667C401.076 351.547 400.997 349.427 400.816 347.307C400.472 341.694 400.321 336.107 400.364 330.48C400.447 319.253 401.941 308.08 404.061 297.067C404.883 292.813 411.685 293.187 410.857 297.48C408.723 308.56 407.5 319.627 407.16 330.907C406.952 337.747 407.865 344.68 407.763 351.52C409.109 351.613 410.379 352.427 410.729 354.133C414.529 358.72 418.024 358.88 421.212 354.574C422.909 351.214 423.771 347.693 423.797 344.013C424.268 337.813 423.712 331.427 423.732 325.213C423.767 314.133 425.56 303.853 430.497 293.92C432.447 290 438.08 293.84 436.153 297.707C426.496 317.134 436.495 339.76 426.868 358.36C422.839 366.147 412.065 366.24 406.801 360.693C406.773 360.813 406.764 360.933 406.736 361.053C404.244 371.813 392.664 372.227 386.004 366.427C385.647 367.653 385.125 368.853 384.355 370C374.845 384.2 355.736 353.533 352.025 347.56C349.711 343.84 355.852 340.893 358.151 344.587" fill="#A44946"/>
<path d="M740.877 2870.88C746.468 2894.81 763.009 2913.2 777.242 2932.48C791.774 2952.16 799.956 2973.12 805.004 2996.96C807.668 3009.53 809.731 3022.21 812.691 3034.73C815.947 3048.51 820.207 3065.39 832.46 3073.91C843.009 3081.23 864.505 3077.88 876.617 3077.48C893.292 3076.93 909.889 3074.95 926.327 3072.16C930.652 3071.44 931.985 3078.11 927.648 3078.84C913.396 3081.25 899.097 3082.89 884.676 3083.85C870.24 3084.81 853.581 3086.47 839.329 3083.35C812.424 3077.47 807.332 3043.83 802.74 3021C796.569 2990.33 790.751 2962.76 772.085 2936.92C757.267 2916.4 740.11 2897.51 734.2 2872.2C733.2 2867.92 739.881 2866.61 740.877 2870.88" fill="#13234D"/>
</g>
<defs>
<filter id="filter0_d_11_4" x="0" y="0" width="3599" height="3343" filterUnits="userSpaceOnUse" color-interpolation-filters="sRGB">
<feFlood flood-opacity="0" result="BackgroundImageFix"/>
<feColorMatrix in="SourceAlpha" type="matrix" values="0 0 0 0 0 0 0 0 0 0 0 0 0 0 0 0 0 0 127 0" result="hardAlpha"/>
<feOffset dy="4"/>
<feGaussianBlur stdDeviation="2"/>
<feComposite in2="hardAlpha" operator="out"/>
<feColorMatrix type="matrix" values="0 0 0 0 0 0 0 0 0 0 0 0 0 0 0 0 0 0 0.25 0"/>
<feBlend mode="normal" in2="BackgroundImageFix" result="effect1_dropShadow_11_4"/>
<feBlend mode="normal" in="SourceGraphic" in2="effect1_dropShadow_11_4" result="shape"/>
</filter>
</defs>
</svg>
